# xmcd
#
# Track frame offsets:
#	150
#	12610
#	22270
#	69892
#	79802
#	94357
#	105327
#	114587
#	124737
#	134700
#	142117
#	155512
#	171210
#	181447
#	198302
#	209207
#	222985
#	233830
#	243750
#	258730
#
# Disc length: 3672 seconds
#
# Revision: 1
# Processed by: cddbd v1.5.2PL0 Copyright (c) Steve Scherf et al.
# Submitted via: audiograbber 1.83.01
#
DISCID=330e5614
DTITLE=LUIZ GONZAGA - O FOLE RONCOU - 100 ANOS
DYEAR=1900
DGENRE=FORRÓ
TTITLE0=O FOLE RONCOU
TTITLE1=SÓ XOTE
TTITLE2=SAMARICA PARTEIRA
TTITLE3=FACILITA
TTITLE4=AQUARELA NORDESTINA
TTITLE5=SANGUE DE NORDESTINO
TTITLE6=DAQULE JEITO
TTITLE7=BAIÃO DE SÃO SEBASTIÃO
TTITLE8=RETRATO DE UM FORRÓ
TTITLE9=BAIÃO DA GAROA(GONZAGUINHA)
TTITLE10=VOU TE MATAR DE CHEIRO
TTITLE11=UMA PRA MIM, UMA PRA TU
TTITLE12=BOM PRA UNS
TTITLE13=A MORTE DO VAQUEIRO(GONZAGUINHA)
TTITLE14=BAIÃO AGRÁRIO
TTITLE15=A REDE VÉIA
TTITLE16=É SEM QUERER
TTITLE17=ASSUM PRETO(GONZAGUINHA)
TTITLE18=MENINO DE BRAÇANÃ-OS OLHINHOS DO MENINO
TTITLE19=A VIDA DO VIAJANTE(GONZAGUINHA)
EXTD=
EXTT0=
EXTT1=
EXTT2=
EXTT3=
EXTT4=
EXTT5=
EXTT6=
EXTT7=
EXTT8=
EXTT9=
EXTT10=
EXTT11=
EXTT12=
EXTT13=
EXTT14=
EXTT15=
EXTT16=
EXTT17=
EXTT18=
EXTT19=
PLAYORDER=
